<?xml version="1.0" standalone="no"?>
<!DOCTYPE svg PUBLIC "-//W3C//DTD SVG 20010904//EN"
 "http://www.w3.org/TR/2001/REC-SVG-20010904/DTD/svg10.dtd">
<svg version="1.0" xmlns="http://www.w3.org/2000/svg"
 width="256.000000pt" height="256.000000pt" viewBox="0 0 256.000000 256.000000"
 preserveAspectRatio="xMidYMid meet">

<g transform="translate(0.000000,256.000000) scale(0.100000,-0.100000)"
fill="#000000" stroke="none">
<path d="M880 1559 c-101 -9 -168 -30 -232 -73 -52 -34 -508 -472 -508 -487 0
-5 67 -9 154 -9 l155 0 161 155 c88 85 179 165 203 177 42 23 45 23 517 26
l475 3 103 102 c56 56 102 105 102 109 0 10 -1018 8 -1130 -3z"/>
<path d="M1803 1288 c-156 -156 -283 -286 -283 -290 0 -5 75 -8 167 -8 l167 0
283 282 c156 156 283 286 283 290 0 5 -75 8 -167 8 l-167 0 -283 -282z"/>
<path d="M940 1310 c-44 -4 -92 -16 -115 -28 -22 -11 -101 -82 -175 -156
l-135 -136 148 0 148 0 59 55 c31 31 73 60 91 65 19 6 164 10 324 10 l290 0
93 93 c50 51 92 96 92 100 0 9 -720 7 -820 -3z"/>
<path d="M2016 1052 c7 -4 14 -18 16 -32 3 -23 4 -22 9 8 5 27 3 32 -15 32
-13 0 -17 -3 -10 -8z"/>
<path d="M2071 1028 c1 -19 3 -25 6 -15 5 18 5 18 18 0 13 -17 14 -17 21 1 7
19 8 19 15 0 6 -15 8 -12 8 14 1 39 -14 42 -24 5 l-7 -28 -10 28 c-13 37 -28
34 -27 -5z"/>
</g>
</svg>
